# xmcd
#
# Track frame offsets: 
#        150
#        18954
#        45571
#        63306
#        89984
#        108554
#        127207
#        151529
#        166802
#        182919
#        202093
#        223264
#        241887
#        260111
#        277397
#        292826
#        311638
#
# Disc length: 4354 seconds
#
# Revision: 0
# Processed by: cddbd v1.5.2PL0 Copyright (c) Steve Scherf et al.
# Submitted via: ExactAudioCopy v0.99pb5
#
DISCID=09110011
DTITLE=Various Artist - Blues From The Burgh 2
DYEAR=2010
DGENRE=Blues
TTITLE0=These Are My Blues Mix - Miss Freddye and Blue Faze 
TTITLE1=Harry Can't Play No G-String - Wil E. Tri And The Bluescasters
TTITLE1=
TTITLE2=Short Chain - Angel Blue and The Prophets 
TTITLE3=Needful Things - Jill West and Blues Attack 
TTITLE4=Players Been Played - Pamela Black And The Warehouse Blues Ban
TTITLE4=d 
TTITLE5=Mean Little Poodle - Ernie Hawkins 
TTITLE6=Just Had To Play The Blues - Felix And The Hurricanes 
TTITLE7=Get Out of My Kitchen - Jimmy Adler Band 
TTITLE8=$200 Car - Ron Yarosz And The Vehicle  
TTITLE9=Say You Wanna Woman - Billy The Kid and the Regulators 
TTITLE10=My Sweat, Your Money - Eugene Morgan 
TTITLE11=Girl That I Knew - Ian Arthurs Band 
TTITLE12=How In The World - Bubs McKeg And Dr. Blue 
TTITLE13=Money Box - Steve Wellons 
TTITLE14=Post-Gazette - Gary Belloma And The Blue Bombers 
TTITLE15=Little Man - Mahajibee Blues Band 
TTITLE16=You So Crazy - Robert Peckman 
EXTD=
EXTT0=
EXTT1=
EXTT2=
EXTT3=
EXTT4=
EXTT5=
EXTT6=
EXTT7=
EXTT8=
EXTT9=
EXTT10=
EXTT11=
EXTT12=
EXTT13=
EXTT14=
EXTT15=
EXTT16=
PLAYORDER=
